<?xml version="1.0" encoding="UTF-8"?>
<svg xmlns="http://www.w3.org/2000/svg" xmlns:xlink="http://www.w3.org/1999/xlink" width="150pt" height="150pt" viewBox="0 0 150 150" version="1.1">
<g id="surface5075677">
<path style=" stroke:none;fill-rule:nonzero;fill:rgb(84.705882%,9.803922%,20.784314%);fill-opacity:1;" d="M 135.9375 104.53125 L 135.9375 108.046875 L 18.75 108.046875 L 18.75 49.453125 C 18.75 43.007812 24.023438 37.734375 30.46875 37.734375 L 112.5 37.734375 C 127.617188 56.601562 135.9375 80.15625 135.9375 104.53125 Z M 135.9375 104.53125 "/>
<path style=" stroke:none;fill-rule:nonzero;fill:rgb(100%,100%,100%);fill-opacity:1;" d="M 74.882812 61.40625 L 62.8125 61.40625 L 62.8125 49.21875 L 51.914062 49.21875 L 51.914062 61.40625 L 39.726562 61.40625 L 39.726562 72.1875 L 51.914062 72.1875 L 51.914062 84.375 L 62.8125 84.375 L 62.8125 72.1875 L 74.882812 72.1875 Z M 74.882812 61.40625 "/>
<path style=" stroke:none;fill-rule:nonzero;fill:rgb(100%,100%,100%);fill-opacity:1;" d="M 128.90625 67.03125 L 108.984375 67.03125 C 102.539062 67.03125 97.265625 61.757812 97.265625 55.3125 L 97.265625 37.734375 L 112.5 37.734375 Z M 128.90625 67.03125 "/>
<path style=" stroke:none;fill-rule:nonzero;fill:rgb(12.54902%,16.078431%,26.27451%);fill-opacity:1;" d="M 127.734375 70.546875 L 108.984375 70.546875 C 100.546875 70.546875 93.75 63.75 93.75 55.3125 L 93.75 37.734375 C 93.75 35.742188 95.273438 34.21875 97.265625 34.21875 C 99.257812 34.21875 100.78125 35.742188 100.78125 37.734375 L 100.78125 55.3125 C 100.78125 59.882812 104.414062 63.515625 108.984375 63.515625 L 127.734375 63.515625 C 129.726562 63.515625 131.25 65.039062 131.25 67.03125 C 131.25 69.023438 129.726562 70.546875 127.734375 70.546875 Z M 127.734375 70.546875 "/>
<path style=" stroke:none;fill-rule:nonzero;fill:rgb(12.54902%,16.078431%,26.27451%);fill-opacity:1;" d="M 135.9375 111.5625 L 18.75 111.5625 C 16.757812 111.5625 15.234375 110.039062 15.234375 108.046875 L 15.234375 49.453125 C 15.234375 41.015625 22.03125 34.21875 30.46875 34.21875 C 32.460938 34.21875 33.984375 35.742188 33.984375 37.734375 C 33.984375 39.726562 32.460938 41.25 30.46875 41.25 C 25.898438 41.25 22.265625 44.882812 22.265625 49.453125 L 22.265625 104.53125 L 132.421875 104.53125 C 132.421875 81.09375 124.335938 58.242188 109.804688 39.960938 C 108.632812 38.4375 108.867188 36.210938 110.390625 35.039062 C 111.914062 33.867188 114.140625 34.101562 115.3125 35.625 C 130.898438 54.960938 139.453125 79.453125 139.453125 104.53125 L 139.453125 108.046875 C 139.453125 109.921875 137.929688 111.5625 135.9375 111.5625 Z M 135.9375 111.5625 "/>
<path style=" stroke:none;fill-rule:nonzero;fill:rgb(12.54902%,16.078431%,26.27451%);fill-opacity:1;" d="M 121.875 41.25 L 97.265625 41.25 C 95.273438 41.25 93.75 39.726562 93.75 37.734375 L 93.75 29.53125 L 89.0625 29.53125 L 89.0625 37.734375 C 89.0625 39.726562 87.539062 41.25 85.546875 41.25 L 30 41.25 C 28.007812 41.25 26.484375 39.726562 26.484375 37.734375 C 26.484375 35.742188 28.007812 34.21875 30 34.21875 L 82.03125 34.21875 L 82.03125 26.015625 C 82.03125 24.023438 83.554688 22.5 85.546875 22.5 L 97.265625 22.5 C 99.257812 22.5 100.78125 24.023438 100.78125 26.015625 L 100.78125 34.21875 L 121.875 34.21875 C 123.867188 34.21875 125.390625 35.742188 125.390625 37.734375 C 125.390625 39.726562 123.867188 41.25 121.875 41.25 Z M 121.875 41.25 "/>
<path style=" stroke:none;fill-rule:nonzero;fill:rgb(12.54902%,16.078431%,26.27451%);fill-opacity:1;" d="M 135.9375 111.5625 L 14.0625 111.5625 C 12.070312 111.5625 10.546875 110.039062 10.546875 108.046875 C 10.546875 106.054688 12.070312 104.53125 14.0625 104.53125 L 135.9375 104.53125 C 137.929688 104.53125 139.453125 106.054688 139.453125 108.046875 C 139.453125 110.039062 137.929688 111.5625 135.9375 111.5625 Z M 135.9375 111.5625 "/>
<path style=" stroke:none;fill-rule:nonzero;fill:rgb(100%,100%,100%);fill-opacity:1;" d="M 48.632812 112.734375 C 48.632812 118.949219 43.597656 123.984375 37.382812 123.984375 C 31.167969 123.984375 26.132812 118.949219 26.132812 112.734375 C 26.132812 106.519531 31.167969 101.484375 37.382812 101.484375 C 43.597656 101.484375 48.632812 106.519531 48.632812 112.734375 Z M 48.632812 112.734375 "/>
<path style=" stroke:none;fill-rule:nonzero;fill:rgb(100%,100%,100%);fill-opacity:1;" d="M 123.632812 112.734375 C 123.632812 118.949219 118.597656 123.984375 112.382812 123.984375 C 106.167969 123.984375 101.132812 118.949219 101.132812 112.734375 C 101.132812 106.519531 106.167969 101.484375 112.382812 101.484375 C 118.597656 101.484375 123.632812 106.519531 123.632812 112.734375 Z M 123.632812 112.734375 "/>
<path style=" stroke:none;fill-rule:nonzero;fill:rgb(12.54902%,16.078431%,26.27451%);fill-opacity:1;" d="M 37.382812 127.5 C 29.179688 127.5 22.617188 120.820312 22.617188 112.734375 C 22.617188 104.648438 29.296875 97.96875 37.382812 97.96875 C 45.46875 97.96875 52.148438 104.648438 52.148438 112.734375 C 52.148438 120.820312 45.46875 127.5 37.382812 127.5 Z M 37.382812 105 C 33.046875 105 29.648438 108.515625 29.648438 112.734375 C 29.648438 116.953125 33.164062 120.46875 37.382812 120.46875 C 41.71875 120.46875 45.117188 116.953125 45.117188 112.734375 C 45.117188 108.515625 41.601562 105 37.382812 105 Z M 37.382812 105 "/>
<path style=" stroke:none;fill-rule:nonzero;fill:rgb(12.54902%,16.078431%,26.27451%);fill-opacity:1;" d="M 112.382812 127.5 C 104.179688 127.5 97.617188 120.820312 97.617188 112.734375 C 97.617188 104.648438 104.296875 97.96875 112.382812 97.96875 C 120.46875 97.96875 127.148438 104.648438 127.148438 112.734375 C 127.148438 120.820312 120.46875 127.5 112.382812 127.5 Z M 112.382812 105 C 108.046875 105 104.648438 108.515625 104.648438 112.734375 C 104.648438 116.953125 108.164062 120.46875 112.382812 120.46875 C 116.71875 120.46875 120.117188 116.953125 120.117188 112.734375 C 120.117188 108.515625 116.601562 105 112.382812 105 Z M 112.382812 105 "/>
</g>
</svg>
