<?xml version="1.0" encoding="UTF-8"?>
<svg xmlns="http://www.w3.org/2000/svg" xmlns:xlink="http://www.w3.org/1999/xlink" width="150pt" height="150pt" viewBox="0 0 150 150" version="1.1">
<g id="surface4590116">
<path style=" stroke:none;fill-rule:nonzero;fill:rgb(100%,100%,100%);fill-opacity:1;" d="M 133.59375 130.078125 L 133.59375 48.046875 C 133.59375 41.601562 128.320312 36.328125 121.875 36.328125 L 28.125 36.328125 C 21.679688 36.328125 16.40625 41.601562 16.40625 48.046875 L 16.40625 130.078125 L 4.6875 130.078125 L 4.6875 133.59375 C 4.6875 140.039062 9.960938 145.3125 16.40625 145.3125 L 133.59375 145.3125 C 140.039062 145.3125 145.3125 140.039062 145.3125 133.59375 L 145.3125 130.078125 Z M 133.59375 130.078125 "/>
<path style=" stroke:none;fill-rule:nonzero;fill:rgb(84.705882%,9.803922%,20.784314%);fill-opacity:1;" d="M 111.328125 72.65625 C 97.148438 72.65625 85.546875 61.054688 85.546875 46.875 C 85.546875 39.84375 88.359375 33.28125 93.398438 28.359375 C 98.4375 23.4375 105.117188 20.859375 112.265625 21.09375 C 125.976562 21.5625 137.109375 33.398438 137.109375 47.34375 L 137.109375 48.046875 C 137.109375 53.90625 132.421875 58.59375 126.5625 58.59375 C 120.703125 58.59375 116.015625 53.90625 116.015625 48.046875 L 116.015625 46.523438 C 116.015625 44.179688 114.023438 42.1875 111.679688 42.1875 C 108.984375 42.1875 106.757812 44.179688 106.640625 46.757812 C 106.640625 48.046875 107.109375 49.21875 107.929688 50.15625 C 108.867188 51.09375 110.039062 51.5625 111.328125 51.5625 C 113.320312 51.5625 114.84375 53.085938 114.84375 55.078125 C 114.84375 57.070312 113.320312 58.59375 111.328125 58.59375 C 108.164062 58.59375 105.117188 57.304688 102.890625 55.078125 C 100.664062 52.734375 99.492188 49.804688 99.609375 46.523438 C 99.84375 40.3125 105.234375 35.15625 111.679688 35.15625 C 118.007812 35.15625 123.046875 40.3125 123.046875 46.523438 L 123.046875 48.046875 C 123.046875 50.039062 124.570312 51.5625 126.5625 51.5625 C 128.554688 51.5625 130.078125 50.039062 130.078125 48.046875 L 130.078125 47.460938 C 130.078125 37.148438 121.992188 28.59375 112.03125 28.242188 C 106.875 28.125 102.070312 29.882812 98.320312 33.515625 C 94.570312 37.03125 92.578125 41.835938 92.578125 46.992188 C 92.578125 57.304688 101.015625 65.742188 111.328125 65.742188 C 113.320312 65.742188 114.84375 67.265625 114.84375 69.257812 C 114.84375 71.25 113.320312 72.65625 111.328125 72.65625 Z M 111.328125 72.65625 "/>
<path style=" stroke:none;fill-rule:nonzero;fill:rgb(12.54902%,16.078431%,26.27451%);fill-opacity:1;" d="M 86.71875 133.59375 L 63.28125 133.59375 C 61.289062 133.59375 59.765625 132.070312 59.765625 130.078125 C 59.765625 128.085938 61.289062 126.5625 63.28125 126.5625 L 86.71875 126.5625 C 88.710938 126.5625 90.234375 128.085938 90.234375 130.078125 C 90.234375 132.070312 88.710938 133.59375 86.71875 133.59375 Z M 86.71875 133.59375 "/>
<path style=" stroke:none;fill-rule:nonzero;fill:rgb(12.54902%,16.078431%,26.27451%);fill-opacity:1;" d="M 133.59375 148.828125 L 16.40625 148.828125 C 7.96875 148.828125 1.171875 142.03125 1.171875 133.59375 L 1.171875 130.078125 C 1.171875 128.085938 2.695312 126.5625 4.6875 126.5625 L 45.703125 126.5625 C 47.695312 126.5625 49.21875 128.085938 49.21875 130.078125 C 49.21875 132.070312 47.695312 133.59375 45.703125 133.59375 L 8.203125 133.59375 C 8.203125 138.164062 11.835938 141.796875 16.40625 141.796875 L 133.59375 141.796875 C 138.164062 141.796875 141.796875 138.164062 141.796875 133.59375 L 104.296875 133.59375 C 102.304688 133.59375 100.78125 132.070312 100.78125 130.078125 C 100.78125 128.085938 102.304688 126.5625 104.296875 126.5625 L 145.3125 126.5625 C 147.304688 126.5625 148.828125 128.085938 148.828125 130.078125 L 148.828125 133.59375 C 148.828125 142.03125 142.03125 148.828125 133.59375 148.828125 Z M 16.40625 120.703125 C 14.414062 120.703125 12.890625 119.179688 12.890625 117.1875 L 12.890625 48.046875 C 12.890625 39.609375 19.6875 32.8125 28.125 32.8125 L 71.484375 32.8125 C 73.476562 32.8125 75 34.335938 75 36.328125 C 75 38.320312 73.476562 39.84375 71.484375 39.84375 L 28.125 39.84375 C 23.554688 39.84375 19.921875 43.476562 19.921875 48.046875 L 19.921875 117.1875 C 19.921875 119.179688 18.398438 120.703125 16.40625 120.703125 Z M 133.59375 120.703125 C 131.601562 120.703125 130.078125 119.179688 130.078125 117.1875 L 130.078125 71.484375 C 130.078125 69.492188 131.601562 67.96875 133.59375 67.96875 C 135.585938 67.96875 137.109375 69.492188 137.109375 71.484375 L 137.109375 117.1875 C 137.109375 119.179688 135.585938 120.703125 133.59375 120.703125 Z M 133.59375 120.703125 "/>
</g>
</svg>
