<?xml version="1.0" encoding="UTF-8"?>
<svg xmlns="http://www.w3.org/2000/svg" xmlns:xlink="http://www.w3.org/1999/xlink" width="150pt" height="150pt" viewBox="0 0 150 150" version="1.1">
<g id="surface5072869">
<path style=" stroke:none;fill-rule:nonzero;fill:rgb(100%,100%,100%);fill-opacity:1;" d="M 117.65625 24.257812 L 32.34375 24.257812 C 24.492188 24.257812 18.164062 30.585938 18.164062 38.4375 L 18.164062 111.796875 C 18.164062 120.117188 24.960938 126.914062 33.28125 126.914062 L 116.71875 126.914062 C 125.039062 126.914062 131.835938 120.117188 131.835938 111.796875 L 131.835938 38.4375 C 131.835938 30.585938 125.507812 24.257812 117.65625 24.257812 "/>
<path style=" stroke:none;fill-rule:nonzero;fill:rgb(84.705882%,9.803922%,20.784314%);fill-opacity:1;" d="M 74.0625 37.617188 C 72.773438 37.617188 71.601562 38.320312 71.015625 39.492188 L 59.648438 60 L 39.609375 60 C 37.617188 60 36.09375 61.523438 36.09375 63.515625 C 36.09375 65.507812 37.617188 67.03125 39.609375 67.03125 L 61.875 67.03125 C 63.164062 67.03125 64.335938 66.445312 64.921875 65.273438 L 71.367188 53.554688 L 73.242188 86.015625 C 73.359375 87.539062 74.414062 88.828125 75.9375 89.179688 C 76.289062 89.296875 76.523438 89.296875 76.757812 89.296875 C 78.046875 89.296875 79.21875 88.59375 79.804688 87.421875 L 91.171875 66.914062 L 110.15625 66.914062 C 112.148438 66.914062 113.671875 65.390625 113.671875 63.398438 C 113.671875 61.40625 112.148438 59.882812 110.15625 59.882812 L 88.945312 59.882812 C 87.65625 59.882812 86.484375 60.46875 85.898438 61.640625 L 79.453125 73.359375 L 77.578125 40.898438 C 77.460938 39.375 76.40625 38.085938 74.882812 37.734375 C 74.648438 37.617188 74.414062 37.617188 74.0625 37.617188 "/>
<path style=" stroke:none;fill-rule:nonzero;fill:rgb(84.705882%,9.803922%,20.784314%);fill-opacity:1;" d="M 114.375 36.210938 C 113.203125 36.210938 112.148438 36.796875 111.328125 37.617188 C 110.625 36.796875 109.570312 36.210938 108.28125 36.210938 C 106.054688 36.210938 104.296875 37.96875 104.296875 40.195312 C 104.296875 41.484375 104.882812 42.539062 105.820312 43.359375 L 111.328125 47.695312 L 116.71875 43.359375 C 117.65625 42.65625 118.359375 41.484375 118.359375 40.195312 C 118.359375 38.085938 116.601562 36.210938 114.375 36.210938 Z M 114.375 36.210938 "/>
<path style=" stroke:none;fill-rule:nonzero;fill:rgb(12.54902%,16.078431%,26.27451%);fill-opacity:1;" d="M 18.164062 112.734375 L 18.164062 101.953125 L 131.835938 101.953125 L 131.835938 112.851562 C 131.835938 120.703125 125.507812 126.914062 117.65625 126.914062 L 32.34375 126.914062 C 24.492188 126.914062 18.164062 120.585938 18.164062 112.734375 Z M 18.164062 112.734375 "/>
<path style=" stroke:none;fill-rule:nonzero;fill:rgb(12.54902%,16.078431%,26.27451%);fill-opacity:1;" d="M 131.835938 105.46875 L 18.164062 105.46875 C 16.171875 105.46875 14.648438 103.945312 14.648438 101.953125 C 14.648438 99.960938 16.171875 98.4375 18.164062 98.4375 L 131.835938 98.4375 C 133.828125 98.4375 135.351562 99.960938 135.351562 101.953125 C 135.351562 103.945312 133.828125 105.46875 131.835938 105.46875 Z M 131.835938 105.46875 "/>
<path style=" stroke:none;fill-rule:nonzero;fill:rgb(100%,100%,100%);fill-opacity:1;" d="M 108.164062 107.34375 C 104.214844 107.34375 101.015625 110.492188 101.015625 114.375 C 101.015625 118.257812 104.214844 121.40625 108.164062 121.40625 C 112.113281 121.40625 115.3125 118.257812 115.3125 114.375 C 115.3125 110.492188 112.113281 107.34375 108.164062 107.34375 Z M 40.78125 107.34375 C 36.832031 107.34375 33.632812 110.492188 33.632812 114.375 C 33.632812 118.257812 36.832031 121.40625 40.78125 121.40625 C 44.730469 121.40625 47.929688 118.257812 47.929688 114.375 C 47.929688 110.492188 44.730469 107.34375 40.78125 107.34375 Z M 40.78125 107.34375 "/>
<path style=" stroke:none;fill-rule:nonzero;fill:rgb(12.54902%,16.078431%,26.27451%);fill-opacity:1;" d="M 117.65625 130.429688 L 32.34375 130.429688 C 22.617188 130.429688 14.648438 122.460938 14.648438 112.734375 L 14.648438 38.4375 C 14.648438 28.710938 22.617188 20.742188 32.34375 20.742188 L 117.65625 20.742188 C 127.382812 20.742188 135.351562 28.710938 135.351562 38.4375 L 135.351562 112.734375 C 135.351562 122.460938 127.382812 130.429688 117.65625 130.429688 Z M 32.34375 27.773438 C 26.484375 27.773438 21.679688 32.578125 21.679688 38.4375 L 21.679688 112.734375 C 21.679688 118.59375 26.484375 123.398438 32.34375 123.398438 L 117.65625 123.398438 C 123.515625 123.398438 128.320312 118.59375 128.320312 112.734375 L 128.320312 38.4375 C 128.320312 32.578125 123.515625 27.773438 117.65625 27.773438 C 117.65625 27.773438 32.34375 27.773438 32.34375 27.773438 Z M 32.34375 27.773438 "/>
</g>
</svg>
