<?xml version="1.0" encoding="UTF-8"?>
<svg xmlns="http://www.w3.org/2000/svg" xmlns:xlink="http://www.w3.org/1999/xlink" width="150pt" height="150pt" viewBox="0 0 150 150" version="1.1">
<g id="surface4589944">
<path style=" stroke:none;fill-rule:nonzero;fill:rgb(84.705882%,9.803922%,20.784314%);fill-opacity:1;" d="M 105.46875 3.28125 C 87.65625 3.28125 73.242188 17.578125 72.65625 35.976562 C 72.1875 52.96875 88.476562 75.351562 98.203125 87.070312 C 99.960938 89.179688 102.65625 90.46875 105.46875 90.46875 C 108.28125 90.46875 110.859375 89.179688 112.734375 87.070312 C 122.460938 75.234375 138.867188 52.96875 138.28125 35.976562 C 137.695312 17.578125 123.28125 3.28125 105.46875 3.28125 Z M 105.46875 3.28125 "/>
<path style=" stroke:none;fill-rule:nonzero;fill:rgb(100%,100%,100%);fill-opacity:1;" d="M 105.46875 24.375 C 98.996094 24.375 93.75 29.621094 93.75 36.09375 C 93.75 42.566406 98.996094 47.8125 105.46875 47.8125 C 111.941406 47.8125 117.1875 42.566406 117.1875 36.09375 C 117.1875 29.621094 111.941406 24.375 105.46875 24.375 Z M 105.46875 24.375 "/>
<path style=" stroke:none;fill-rule:nonzero;fill:rgb(12.54902%,16.078431%,26.27451%);fill-opacity:1;" d="M 66.445312 148.242188 C 65.039062 148.242188 63.632812 147.304688 63.164062 145.898438 L 35.15625 68.90625 C 34.453125 67.03125 35.390625 65.039062 37.265625 64.453125 C 39.140625 63.75 41.132812 64.6875 41.71875 66.5625 L 69.726562 143.671875 C 70.429688 145.546875 69.492188 147.539062 67.617188 148.125 C 67.265625 148.242188 66.914062 148.242188 66.445312 148.242188 Z M 66.445312 148.242188 "/>
<path style=" stroke:none;fill-rule:nonzero;fill:rgb(12.54902%,16.078431%,26.27451%);fill-opacity:1;" d="M 17.8125 117.304688 C 16.40625 117.304688 15 116.367188 14.53125 114.960938 C 13.828125 113.085938 14.765625 111.09375 16.640625 110.507812 L 49.6875 98.4375 C 51.5625 97.734375 53.554688 98.671875 54.140625 100.546875 C 54.84375 102.421875 53.90625 104.414062 52.03125 105 L 18.984375 117.070312 C 18.632812 117.304688 18.164062 117.304688 17.8125 117.304688 Z M 56.015625 78.515625 C 54.609375 78.515625 53.203125 77.578125 52.734375 76.171875 C 52.03125 74.296875 52.96875 72.304688 54.84375 71.71875 L 65.859375 67.734375 C 67.734375 67.03125 69.726562 67.96875 70.3125 69.84375 C 70.898438 71.71875 70.078125 73.710938 68.203125 74.296875 L 57.1875 78.28125 C 56.835938 78.398438 56.484375 78.515625 56.015625 78.515625 Z M 60.820312 91.640625 C 59.414062 91.640625 58.007812 90.820312 57.539062 89.296875 C 56.835938 87.421875 57.773438 85.429688 59.648438 84.726562 L 76.171875 78.75 C 78.046875 78.046875 80.039062 78.984375 80.742188 80.859375 C 81.445312 82.734375 80.507812 84.726562 78.632812 85.429688 L 62.109375 91.523438 C 61.640625 91.640625 61.289062 91.640625 60.820312 91.640625 Z M 118.945312 114.257812 C 117.539062 114.257812 116.132812 113.320312 115.664062 111.914062 L 111.679688 100.898438 C 110.976562 99.023438 111.914062 97.03125 113.789062 96.445312 C 115.664062 95.742188 117.65625 96.679688 118.242188 98.554688 L 122.226562 109.570312 C 122.929688 111.445312 121.992188 113.4375 120.117188 114.023438 C 119.765625 114.140625 119.296875 114.257812 118.945312 114.257812 Z M 118.945312 114.257812 "/>
<path style=" stroke:none;fill-rule:nonzero;fill:rgb(12.54902%,16.078431%,26.27451%);fill-opacity:1;" d="M 70.898438 119.179688 C 69.492188 119.179688 68.085938 118.242188 67.617188 116.835938 C 66.914062 114.960938 67.851562 112.96875 69.726562 112.382812 L 124.804688 92.34375 C 126.679688 91.640625 128.671875 92.578125 129.257812 94.453125 C 129.960938 96.328125 129.023438 98.320312 127.148438 98.90625 L 72.070312 118.945312 C 71.71875 119.179688 71.25 119.179688 70.898438 119.179688 Z M 70.898438 119.179688 "/>
<path style=" stroke:none;fill-rule:nonzero;fill:rgb(12.54902%,16.078431%,26.27451%);fill-opacity:1;" d="M 79.6875 143.4375 C 78.28125 143.4375 76.875 142.5 76.40625 141.09375 L 57.539062 89.414062 C 56.835938 87.539062 57.773438 85.546875 59.648438 84.960938 C 61.523438 84.257812 63.515625 85.195312 64.101562 87.070312 L 82.96875 138.867188 C 83.671875 140.742188 82.734375 142.734375 80.859375 143.320312 C 80.507812 143.4375 80.039062 143.4375 79.6875 143.4375 Z M 56.015625 78.515625 C 54.609375 78.515625 53.203125 77.578125 52.734375 76.171875 L 48.28125 64.101562 C 47.578125 62.226562 48.515625 60.234375 50.390625 59.648438 C 52.265625 58.945312 54.257812 59.882812 54.84375 61.757812 L 59.296875 73.828125 C 60 75.703125 59.0625 77.695312 57.1875 78.28125 C 56.835938 78.398438 56.484375 78.515625 56.015625 78.515625 Z M 56.015625 78.515625 "/>
</g>
</svg>
