<?xml version="1.0" encoding="UTF-8"?>
<svg xmlns="http://www.w3.org/2000/svg" xmlns:xlink="http://www.w3.org/1999/xlink" width="150pt" height="150pt" viewBox="0 0 150 150" version="1.1">
<defs>
<filter id="alpha" filterUnits="objectBoundingBox" x="0%" y="0%" width="100%" height="100%">
  <feColorMatrix type="matrix" in="SourceGraphic" values="0 0 0 0 1 0 0 0 0 1 0 0 0 0 1 0 0 0 1 0"/>
</filter>
<mask id="mask0">
  <g filter="url(#alpha)">
<rect x="0" y="0" width="150" height="150" style="fill:rgb(0%,0%,0%);fill-opacity:0.2;stroke:none;"/>
  </g>
</mask>
<clipPath id="clip1">
  <rect width="150" height="150"/>
</clipPath>
<g id="surface4589702" clip-path="url(#clip1)">
<path style=" stroke:none;fill-rule:nonzero;fill:rgb(84.705882%,9.803922%,20.784314%);fill-opacity:1;" d="M 43.828125 69.609375 C 47.695312 65.273438 54.375 64.804688 58.710938 68.671875 C 63.046875 72.539062 63.515625 79.21875 59.648438 83.554688 L 54.609375 89.0625 C 50.976562 93.28125 48.398438 97.382812 46.757812 101.484375 C 48.28125 101.835938 49.921875 101.953125 51.5625 101.953125 C 65.859375 101.953125 77.34375 90.46875 77.34375 76.171875 C 77.34375 61.875 65.859375 50.390625 51.5625 50.390625 C 45.703125 50.390625 40.429688 52.265625 36.09375 55.546875 L 36.210938 78.28125 C 37.148438 77.226562 37.96875 76.171875 38.90625 75.117188 Z M 43.828125 69.609375 "/>
</g>
</defs>
<g id="surface4589697">
<path style=" stroke:none;fill-rule:nonzero;fill:rgb(100%,100%,100%);fill-opacity:1;" d="M 86.71875 145.3125 L 86.71875 132.421875 C 86.71875 127.851562 88.476562 123.515625 91.523438 120.234375 L 123.28125 86.601562 C 127.734375 81.914062 127.5 74.53125 122.8125 70.078125 C 118.125 65.625 110.742188 65.859375 106.289062 70.546875 L 90.46875 87.1875 C 91.992188 85.078125 93.515625 83.085938 95.15625 81.09375 L 124.570312 47.109375 C 129.257812 41.71875 128.671875 33.632812 123.28125 28.945312 C 117.890625 24.257812 109.804688 24.84375 105.117188 30.234375 L 75.703125 64.21875 C 75 65.039062 74.296875 65.859375 73.59375 66.796875 C 75.585938 63.164062 77.8125 59.53125 80.273438 56.132812 L 101.953125 24.960938 C 106.054688 19.101562 104.53125 11.132812 98.789062 7.03125 C 92.929688 2.929688 84.960938 4.453125 80.859375 10.195312 L 59.0625 41.367188 C 57.890625 43.125 56.71875 44.882812 55.546875 46.640625 L 67.617188 23.4375 C 70.898438 17.109375 68.4375 9.375 62.109375 6.09375 C 55.78125 2.8125 48.046875 5.273438 44.765625 11.601562 L 32.695312 34.921875 C 24.492188 50.625 19.101562 67.617188 16.757812 85.078125 L 16.757812 148.828125 "/>
<path style=" stroke:none;fill-rule:nonzero;fill:rgb(100%,100%,100%);fill-opacity:1;" d="M 16.992188 145.3125 C 10.546875 117.890625 21.210938 94.921875 38.90625 75.117188 L 43.828125 69.609375 C 47.695312 65.273438 54.375 64.804688 58.710938 68.671875 C 63.046875 72.539062 63.515625 79.21875 59.648438 83.554688 L 54.609375 89.0625 C 41.367188 103.945312 42.421875 118.359375 51.210938 133.59375 L 86.71875 133.59375 L 86.71875 148.828125 L 17.578125 148.828125 Z M 16.992188 145.3125 "/>
<path style=" stroke:none;fill-rule:nonzero;fill:rgb(100%,100%,100%);fill-opacity:1;" d="M 16.992188 145.3125 C 10.546875 117.890625 21.210938 94.921875 38.90625 75.117188 L 43.828125 69.609375 C 47.695312 65.273438 54.375 64.804688 58.710938 68.671875 C 63.046875 72.539062 63.515625 79.21875 59.648438 83.554688 L 54.609375 89.0625 C 41.367188 103.945312 42.421875 118.359375 51.210938 133.59375 L 86.71875 133.59375 L 86.71875 148.828125 L 17.578125 148.828125 Z M 16.992188 145.3125 "/>
<path style=" stroke:none;fill-rule:nonzero;fill:rgb(12.54902%,16.078431%,26.27451%);fill-opacity:1;" d="M 86.71875 148.828125 C 84.726562 148.828125 83.203125 147.304688 83.203125 145.3125 L 83.203125 132.421875 C 83.203125 126.914062 85.3125 121.757812 89.0625 117.773438 L 120.820312 84.140625 C 123.984375 80.859375 123.75 75.703125 120.46875 72.539062 C 118.828125 71.015625 116.835938 70.195312 114.609375 70.3125 C 112.382812 70.429688 110.390625 71.25 108.867188 72.890625 L 93.046875 89.648438 C 91.757812 90.9375 89.648438 91.171875 88.242188 90 C 86.835938 88.828125 86.484375 86.71875 87.539062 85.3125 C 89.179688 83.085938 90.820312 80.859375 92.460938 78.984375 L 121.875 45 C 125.273438 41.132812 124.804688 35.15625 120.9375 31.757812 C 117.070312 28.359375 111.09375 28.828125 107.695312 32.695312 L 78.28125 66.679688 C 77.695312 67.382812 76.992188 68.203125 76.40625 68.90625 L 76.171875 69.140625 C 75 70.546875 73.007812 70.898438 71.484375 69.84375 C 69.960938 68.789062 69.492188 66.796875 70.429688 65.273438 C 72.539062 61.40625 74.882812 57.773438 77.226562 54.257812 L 98.90625 23.085938 C 100.3125 20.976562 100.898438 18.515625 100.429688 16.054688 C 99.960938 13.59375 98.671875 11.484375 96.5625 9.960938 C 94.453125 8.554688 91.992188 7.96875 89.53125 8.4375 C 87.070312 8.90625 84.960938 10.195312 83.4375 12.304688 L 61.992188 43.476562 C 60.9375 45 59.765625 46.640625 58.59375 48.632812 C 57.539062 50.273438 55.546875 50.742188 53.90625 49.804688 C 52.265625 48.867188 51.679688 46.757812 52.5 45.117188 L 64.570312 21.914062 C 65.742188 19.6875 65.976562 17.109375 65.15625 14.765625 C 64.453125 12.421875 62.8125 10.429688 60.585938 9.257812 C 58.359375 8.085938 55.78125 7.851562 53.4375 8.671875 C 51.09375 9.375 49.101562 11.015625 47.929688 13.242188 L 35.742188 36.5625 C 27.773438 51.914062 22.5 68.4375 20.15625 85.664062 C 19.921875 87.539062 18.164062 88.945312 16.171875 88.710938 C 14.296875 88.476562 12.890625 86.71875 13.125 84.726562 C 15.585938 66.679688 21.09375 49.453125 29.53125 33.398438 L 41.71875 9.960938 C 43.710938 6.09375 47.109375 3.164062 51.328125 1.875 C 55.546875 0.585938 60 0.9375 63.867188 2.929688 C 67.734375 4.921875 70.664062 8.320312 71.953125 12.539062 C 72.304688 13.59375 72.539062 14.648438 72.65625 15.820312 L 77.929688 8.203125 C 80.390625 4.570312 84.140625 2.226562 88.476562 1.40625 C 92.8125 0.585938 97.148438 1.640625 100.78125 4.101562 C 104.414062 6.5625 106.757812 10.3125 107.578125 14.648438 C 108.164062 18.164062 107.695312 21.5625 106.171875 24.726562 C 112.148438 20.976562 120 21.445312 125.507812 26.25 C 132.304688 32.109375 133.125 42.539062 127.265625 49.335938 L 115.3125 63.28125 C 119.0625 63.398438 122.578125 64.804688 125.390625 67.382812 C 131.484375 73.125 131.71875 82.851562 125.976562 88.945312 L 94.21875 122.578125 C 91.757812 125.273438 90.351562 128.671875 90.351562 132.304688 L 90.351562 145.195312 C 90.234375 147.304688 88.710938 148.828125 86.71875 148.828125 Z M 86.71875 148.828125 "/>
<path style=" stroke:none;fill-rule:nonzero;fill:rgb(100%,100%,100%);fill-opacity:1;" d="M 48.398438 133.59375 L 102.890625 133.59375 C 108.867188 133.59375 113.671875 128.789062 113.671875 122.8125 L 113.671875 15.351562 C 113.671875 9.492188 108.867188 4.6875 102.890625 4.6875 L 47.109375 4.6875 C 41.132812 4.6875 36.328125 9.492188 36.328125 15.46875 L 36.679688 121.992188 C 36.679688 128.320312 41.953125 133.59375 48.398438 133.59375 Z M 48.398438 133.59375 "/>
<use xlink:href="#surface4589702" mask="url(#mask0)"/>
<path style=" stroke:none;fill-rule:nonzero;fill:rgb(84.705882%,9.803922%,20.784314%);fill-opacity:1;" d="M 75 112.5 C 71.765625 112.5 69.140625 115.125 69.140625 118.359375 C 69.140625 121.59375 71.765625 124.21875 75 124.21875 C 78.234375 124.21875 80.859375 121.59375 80.859375 118.359375 C 80.859375 115.125 78.234375 112.5 75 112.5 Z M 75 112.5 "/>
<path style=" stroke:none;fill-rule:nonzero;fill:rgb(12.54902%,16.078431%,26.27451%);fill-opacity:1;" d="M 16.992188 148.828125 C 15.351562 148.828125 13.945312 147.773438 13.59375 146.132812 C 7.734375 120.703125 15.117188 96.679688 36.328125 72.773438 L 41.25 67.265625 C 43.710938 64.453125 47.226562 62.8125 50.976562 62.578125 C 54.726562 62.34375 58.359375 63.632812 61.171875 66.09375 C 63.984375 68.554688 65.625 72.070312 65.859375 75.820312 C 66.09375 79.570312 64.804688 83.203125 62.34375 86.015625 L 57.304688 91.40625 C 46.289062 103.828125 45.351562 116.367188 54.257812 131.835938 C 55.195312 133.476562 54.609375 135.703125 52.96875 136.640625 C 51.328125 137.578125 49.101562 136.992188 48.164062 135.351562 C 37.617188 117.070312 38.789062 101.601562 52.03125 86.71875 L 56.953125 81.210938 C 58.242188 79.804688 58.828125 78.046875 58.710938 76.171875 C 58.59375 74.296875 57.773438 72.539062 56.367188 71.367188 C 54.960938 70.078125 53.203125 69.492188 51.328125 69.609375 C 49.453125 69.726562 47.695312 70.546875 46.523438 71.953125 L 41.601562 77.460938 C 22.03125 99.492188 15.117188 121.523438 20.507812 144.492188 C 20.976562 146.367188 19.804688 148.242188 17.929688 148.710938 C 17.460938 148.828125 17.226562 148.828125 16.992188 148.828125 Z M 16.992188 148.828125 "/>
<path style=" stroke:none;fill-rule:nonzero;fill:rgb(84.705882%,9.803922%,20.784314%);fill-opacity:1;" d="M 102.539062 137.109375 L 64.804688 137.109375 C 62.8125 137.109375 61.289062 135.585938 61.289062 133.59375 C 61.289062 131.601562 62.8125 130.078125 64.804688 130.078125 L 102.539062 130.078125 C 106.523438 130.078125 109.804688 126.796875 109.804688 122.8125 L 109.804688 15.46875 C 109.804688 11.484375 106.523438 8.203125 102.539062 8.203125 L 46.757812 8.203125 C 42.773438 8.203125 39.492188 11.484375 39.492188 15.46875 L 39.492188 56.132812 C 39.492188 58.125 37.96875 59.648438 35.976562 59.648438 C 33.984375 59.648438 32.460938 58.125 32.460938 56.132812 L 32.460938 15.46875 C 32.460938 7.617188 38.789062 1.171875 46.757812 1.171875 L 102.65625 1.171875 C 110.507812 1.171875 116.953125 7.617188 116.953125 15.46875 L 116.953125 122.929688 C 116.835938 130.664062 110.390625 137.109375 102.539062 137.109375 Z M 102.539062 137.109375 "/>
</g>
</svg>
