<?xml version="1.0" encoding="UTF-8"?>
<svg xmlns="http://www.w3.org/2000/svg" xmlns:xlink="http://www.w3.org/1999/xlink" width="150pt" height="150pt" viewBox="0 0 150 150" version="1.1">
<g id="surface4879437">
<path style=" stroke:none;fill-rule:nonzero;fill:rgb(100%,100%,100%);fill-opacity:1;" d="M 80.15625 124.21875 C 72.65625 111.09375 58.476562 102.1875 42.1875 102.1875 C 25.898438 102.1875 11.71875 111.09375 4.21875 124.335938 L 4.335938 127.851562 L 80.039062 127.851562 Z M 42.1875 46.875 C 30.863281 46.875 21.679688 56.058594 21.679688 67.382812 C 21.679688 78.707031 30.863281 87.890625 42.1875 87.890625 C 53.511719 87.890625 62.695312 78.707031 62.695312 67.382812 C 62.695312 56.058594 53.511719 46.875 42.1875 46.875 Z M 42.1875 46.875 "/>
<path style=" stroke:none;fill-rule:nonzero;fill:rgb(84.705882%,9.803922%,20.784314%);fill-opacity:1;" d="M 42.1875 91.289062 C 28.945312 91.289062 18.164062 80.507812 18.164062 67.265625 C 18.164062 54.726562 28.007812 44.179688 40.546875 43.359375 C 42.539062 43.242188 44.179688 44.648438 44.296875 46.640625 C 44.414062 48.632812 43.007812 50.273438 41.015625 50.390625 C 32.109375 50.976562 25.195312 58.359375 25.195312 67.265625 C 25.195312 76.640625 32.8125 84.257812 42.1875 84.257812 C 45.234375 84.257812 48.28125 83.4375 50.859375 81.914062 C 52.5 80.976562 54.726562 81.445312 55.664062 83.085938 C 56.601562 84.726562 56.132812 86.953125 54.492188 87.890625 C 50.742188 90.117188 46.523438 91.289062 42.1875 91.289062 Z M 4.21875 127.734375 C 3.632812 127.734375 3.046875 127.617188 2.460938 127.265625 C 0.820312 126.328125 0.234375 124.21875 1.171875 122.460938 C 7.265625 111.679688 17.578125 103.59375 29.53125 100.3125 C 31.40625 99.84375 33.398438 100.898438 33.867188 102.773438 C 34.335938 104.648438 33.28125 106.640625 31.40625 107.109375 C 21.328125 109.921875 12.539062 116.835938 7.265625 125.976562 C 6.679688 127.148438 5.507812 127.734375 4.21875 127.734375 Z M 4.21875 127.734375 "/>
<path style=" stroke:none;fill-rule:nonzero;fill:rgb(100%,100%,100%);fill-opacity:1;" d="M 69.84375 124.21875 C 77.34375 111.09375 91.523438 102.1875 107.8125 102.1875 C 124.101562 102.1875 138.28125 111.09375 145.78125 124.335938 L 145.664062 127.851562 L 69.960938 127.851562 Z M 107.8125 46.875 C 96.488281 46.875 87.304688 56.058594 87.304688 67.382812 C 87.304688 78.707031 96.488281 87.890625 107.8125 87.890625 C 119.136719 87.890625 128.320312 78.707031 128.320312 67.382812 C 128.320312 56.058594 119.136719 46.875 107.8125 46.875 Z M 107.8125 46.875 "/>
<path style=" stroke:none;fill-rule:nonzero;fill:rgb(84.705882%,9.803922%,20.784314%);fill-opacity:1;" d="M 107.8125 91.289062 C 103.476562 91.289062 99.257812 90.117188 95.625 87.890625 C 93.984375 86.953125 93.398438 84.726562 94.453125 83.085938 C 95.390625 81.445312 97.617188 80.859375 99.257812 81.914062 C 101.835938 83.4375 104.882812 84.257812 107.929688 84.257812 C 117.304688 84.257812 124.921875 76.640625 124.921875 67.265625 C 124.921875 58.359375 118.007812 50.976562 109.101562 50.390625 C 107.109375 50.273438 105.703125 48.632812 105.820312 46.640625 C 105.9375 44.648438 107.578125 43.242188 109.570312 43.359375 C 122.109375 44.179688 131.953125 54.726562 131.953125 67.265625 C 131.835938 80.625 121.054688 91.289062 107.8125 91.289062 Z M 145.78125 127.734375 C 144.609375 127.734375 143.320312 127.148438 142.734375 125.976562 C 137.578125 116.835938 128.789062 109.921875 118.59375 107.109375 C 116.71875 106.640625 115.664062 104.648438 116.132812 102.773438 C 116.601562 100.898438 118.59375 99.84375 120.46875 100.3125 C 132.304688 103.59375 142.617188 111.679688 148.828125 122.460938 C 149.765625 124.101562 149.179688 126.328125 147.539062 127.265625 C 146.953125 127.617188 146.367188 127.734375 145.78125 127.734375 Z M 145.78125 127.734375 "/>
<path style=" stroke:none;fill-rule:nonzero;fill:rgb(100%,100%,100%);fill-opacity:1;" d="M 118.476562 123.75 C 109.804688 108.632812 93.632812 98.4375 75 98.4375 C 56.367188 98.4375 40.195312 108.632812 31.523438 123.75 L 31.640625 127.734375 L 118.359375 127.734375 Z M 75 35.15625 C 62.054688 35.15625 51.5625 45.648438 51.5625 58.59375 C 51.5625 71.539062 62.054688 82.03125 75 82.03125 C 87.945312 82.03125 98.4375 71.539062 98.4375 58.59375 C 98.4375 45.648438 87.945312 35.15625 75 35.15625 Z M 75 35.15625 "/>
<path style=" stroke:none;fill-rule:nonzero;fill:rgb(12.54902%,16.078431%,26.27451%);fill-opacity:1;" d="M 75 85.546875 C 60.117188 85.546875 48.046875 73.476562 48.046875 58.59375 C 48.046875 43.710938 60.117188 31.640625 75 31.640625 C 89.882812 31.640625 101.953125 43.710938 101.953125 58.59375 C 101.953125 73.476562 89.882812 85.546875 75 85.546875 Z M 75 38.671875 C 63.984375 38.671875 55.078125 47.578125 55.078125 58.59375 C 55.078125 69.609375 63.984375 78.515625 75 78.515625 C 86.015625 78.515625 94.921875 69.609375 94.921875 58.59375 C 94.921875 47.578125 86.015625 38.671875 75 38.671875 Z M 31.523438 127.734375 C 30.9375 127.734375 30.351562 127.617188 29.765625 127.265625 C 28.125 126.328125 27.539062 124.21875 28.476562 122.460938 C 37.96875 105.820312 55.78125 95.390625 75 95.390625 C 94.21875 95.390625 112.03125 105.820312 121.523438 122.460938 C 122.460938 124.101562 121.875 126.328125 120.234375 127.265625 C 118.59375 128.203125 116.367188 127.617188 115.429688 125.976562 C 107.226562 111.445312 91.757812 102.421875 75 102.421875 C 58.359375 102.421875 42.890625 111.445312 34.570312 125.976562 C 33.984375 127.148438 32.8125 127.734375 31.523438 127.734375 Z M 31.523438 127.734375 "/>
</g>
</svg>
