<?xml version="1.0" standalone="no"?>
<!DOCTYPE svg PUBLIC "-//W3C//DTD SVG 20010904//EN"
 "http://www.w3.org/TR/2001/REC-SVG-20010904/DTD/svg10.dtd">
<svg version="1.0" xmlns="http://www.w3.org/2000/svg"
 width="400.000000pt" height="400.000000pt" viewBox="0 0 400.000000 400.000000"
 preserveAspectRatio="xMidYMid meet">
<metadata>
Created by potrace 1.15, written by Peter Selinger 2001-2017
</metadata>
<g transform="translate(0.000000,400.000000) scale(0.100000,-0.100000)"
fill="#000000" stroke="none">
<path d="M1859 3777 c-295 -102 -400 -444 -215 -695 43 -58 158 -146 180 -139
6 2 12 35 14 76 l3 72 -44 42 c-65 64 -91 126 -92 217 0 166 111 286 276 298
97 7 159 -17 229 -87 123 -124 120 -304 -7 -428 l-53 -52 0 -69 c0 -38 3 -71
6 -75 13 -13 111 48 165 103 143 147 170 365 66 542 -38 65 -128 145 -204 181
-59 27 -81 32 -163 34 -79 3 -106 0 -161 -20z"/>
<path d="M1955 3476 c-83 -36 -109 -127 -59 -202 l27 -39 -7 -345 c-6 -346
-14 -430 -49 -496 l-13 -24 -63 31 c-68 34 -222 169 -458 402 -119 118 -132
134 -138 174 -8 52 -57 107 -104 118 -71 15 -148 -41 -158 -115 -11 -77 52
-150 128 -150 31 0 51 -17 210 -177 260 -264 321 -332 357 -399 17 -34 32 -66
32 -71 0 -11 -55 -37 -115 -53 -24 -7 -187 -14 -403 -17 l-363 -6 -25 24 c-37
35 -121 34 -159 -1 -59 -55 -70 -115 -32 -171 49 -74 135 -86 201 -29 l34 30
143 0 c79 -1 243 -5 364 -10 218 -9 295 -21 339 -53 18 -13 17 -16 -9 -71 -30
-63 -146 -195 -394 -448 -144 -148 -157 -158 -191 -158 -42 0 -83 -27 -105
-70 -46 -88 20 -190 122 -190 33 0 50 7 77 30 35 32 62 90 52 115 -5 13 362
383 485 487 60 51 153 102 173 95 26 -10 48 -111 56 -257 11 -186 12 -630 2
-630 -17 0 -42 -61 -42 -103 0 -128 173 -175 240 -64 31 49 26 109 -10 150
l-30 35 1 203 c1 345 13 545 39 612 15 39 27 57 39 57 36 0 124 -54 198 -123
170 -154 461 -451 456 -463 -9 -24 18 -83 53 -114 81 -71 214 -9 214 100 0 68
-57 130 -119 130 -33 0 -47 11 -172 138 -243 246 -377 398 -412 468 -36 74
-36 73 48 100 56 17 339 33 621 33 169 1 171 1 194 -24 80 -85 230 -22 230 97
0 64 -67 128 -135 128 -36 0 -95 -26 -95 -42 0 -11 -505 -9 -660 2 -118 8
-213 30 -226 52 -3 5 8 38 25 73 36 72 98 143 360 408 159 160 179 177 210
177 76 0 139 73 128 150 -10 74 -87 130 -158 115 -47 -11 -96 -66 -104 -119
-7 -41 -18 -55 -144 -178 -255 -250 -386 -364 -456 -399 -76 -37 -75 -37 -101
46 -19 60 -33 307 -33 589 l-1 198 30 35 c57 64 35 168 -43 204 -49 22 -62 23
-102 5z m-63 -1177 c21 -5 54 -26 73 -46 l35 -36 35 36 c110 113 284 32 285
-133 0 -95 -91 -226 -242 -347 -37 -29 -72 -53 -78 -53 -18 0 -141 103 -204
171 -102 110 -138 218 -101 306 21 50 42 72 90 94 47 22 57 22 107 8z"/>
<path d="M1997 2138 c-47 -51 -95 -105 -107 -120 l-21 -28 54 0 c29 0 56 -3
59 -6 3 -3 -10 -41 -29 -85 -19 -44 -33 -84 -31 -89 2 -5 49 44 105 109 110
128 110 131 28 131 l-44 0 40 86 c22 48 38 89 35 91 -2 2 -42 -38 -89 -89z"/>
<path d="M935 3396 c-114 -36 -230 -136 -278 -239 -167 -357 172 -742 547
-620 l48 15 -57 58 -56 57 -72 -1 c-88 0 -153 26 -214 86 -123 120 -117 323
13 437 25 22 68 47 96 57 68 22 177 15 236 -15 98 -50 162 -156 162 -269 0
-57 1 -58 59 -116 l60 -59 16 58 c13 42 16 83 13 145 -3 73 -9 97 -39 161 -80
166 -228 260 -411 258 -46 0 -101 -6 -123 -13z"/>
<path d="M2797 3390 c-122 -43 -210 -122 -266 -239 -30 -64 -36 -88 -39 -161
-3 -62 0 -103 13 -145 l16 -58 60 59 c58 58 59 59 59 116 0 113 64 219 162
269 59 30 168 37 236 15 28 -10 71 -35 96 -57 130 -114 136 -317 13 -437 -61
-60 -126 -86 -214 -86 l-72 1 -56 -57 -57 -58 48 -15 c163 -53 335 -12 457
110 138 138 172 334 90 510 -38 81 -133 175 -220 215 -60 29 -80 33 -168 35
-81 3 -111 -1 -158 -17z"/>
<path d="M591 2469 c-230 -45 -396 -280 -360 -509 23 -146 118 -274 254 -341
68 -33 74 -34 190 -34 115 0 123 1 185 32 36 17 85 49 109 70 45 38 121 145
121 170 0 10 -19 13 -78 13 l-79 0 -31 -39 c-18 -23 -57 -52 -93 -70 -52 -26
-74 -31 -135 -31 -62 0 -81 5 -135 33 -106 54 -159 142 -159 264 0 111 52 204
145 259 117 68 284 41 373 -61 31 -35 32 -35 112 -35 44 0 80 2 80 5 0 19 -47
91 -90 139 -61 66 -164 121 -255 136 -69 11 -93 11 -154 -1z"/>
<path d="M3230 2469 c-73 -14 -165 -67 -224 -128 -45 -48 -96 -125 -96 -146 0
-3 35 -5 78 -5 l78 0 43 44 c116 119 306 122 424 8 60 -57 80 -105 85 -200 4
-77 2 -87 -27 -147 -37 -74 -83 -117 -159 -145 -113 -42 -236 -15 -321 71
l-48 49 -77 0 c-85 0 -89 -4 -55 -60 141 -233 424 -300 647 -153 201 134 257
418 122 618 -106 156 -285 230 -470 194z"/>
<path d="M950 1526 c-208 -56 -355 -261 -336 -468 21 -226 196 -398 421 -415
295 -23 529 256 465 554 -18 84 -23 85 -85 22 l-56 -55 -2 -80 c-4 -126 -63
-216 -172 -266 -72 -33 -182 -32 -249 1 -110 54 -169 149 -170 271 -1 63 4 85
27 132 50 103 157 168 275 168 57 0 58 1 116 58 l57 59 -58 16 c-69 20 -169
21 -233 3z"/>
<path d="M2812 1523 l-53 -16 57 -58 c58 -58 59 -59 116 -59 118 0 225 -65
275 -168 23 -47 28 -69 27 -132 -1 -122 -60 -217 -170 -270 -68 -34 -178 -34
-249 -2 -109 50 -168 140 -172 266 l-2 80 -56 55 c-62 63 -67 62 -85 -22 -52
-244 93 -482 330 -543 168 -43 361 26 465 166 138 189 120 429 -44 590 -118
115 -286 158 -439 113z"/>
<path d="M1774 1091 c-58 -34 -144 -122 -172 -177 -142 -280 22 -604 333 -657
174 -30 379 74 459 231 91 180 67 372 -64 514 -52 57 -152 124 -169 113 -6 -3
-11 -38 -11 -77 l0 -70 44 -40 c25 -21 57 -64 73 -96 38 -77 39 -183 3 -256
-53 -110 -148 -169 -270 -170 -63 -1 -85 4 -132 27 -184 90 -223 324 -81 477
l53 58 0 70 c0 39 -4 73 -8 76 -5 3 -30 -8 -58 -23z"/>
</g>
</svg>
